<svg viewBox="0 0 12.938 12.5156" xmlns="http://www.w3.org/2000/svg" xmlns:xlink="http://www.w3.org/1999/xlink" width="12.937988" height="12.515625" fill="none" customFrame="#000000">
	<path id="Vector" d="M12.7973 5.58984L2.51238 5.58984L8.66823 0.246094C8.76667 0.159961 8.70691 0 8.57683 0L7.02117 0C6.95261 0 6.88757 0.0246093 6.8366 0.0685546L0.193822 5.83242C0.132982 5.88516 0.0841885 5.95036 0.0507477 6.0236C0.0173069 6.09684 -4.996e-16 6.17642 0 6.25693C-4.996e-16 6.33745 0.0173069 6.41702 0.0507477 6.49027C0.0841885 6.56351 0.132982 6.62871 0.193822 6.68145L6.87527 12.4805C6.90163 12.5033 6.93327 12.5156 6.96667 12.5156L8.57507 12.5156C8.70515 12.5156 8.76491 12.3539 8.66648 12.2695L2.51238 6.92578L12.7973 6.92578C12.8747 6.92578 12.938 6.8625 12.938 6.78516L12.938 5.73047C12.938 5.65312 12.8747 5.58984 12.7973 5.58984Z" fill="rgb(0,0,0)" fill-opacity="0.879999995" fill-rule="nonzero" />
</svg>
